<svg width="24" height="24" viewBox="0 0 24 24" fill="none" xmlns="http://www.w3.org/2000/svg">
<g id="Item &#226;&#134;&#146; Link &#226;&#134;&#146; SVG" clip-path="url(#clip0_40_15)">
<path id="Vector" d="M7.0901 0.143984C5.8133 0.204224 4.94138 0.407984 4.17914 0.707504C3.39026 1.01494 2.72162 1.4275 2.05634 2.09518C1.39106 2.76286 0.981377 3.43198 0.676097 4.22206C0.380657 4.98598 0.180497 5.85862 0.124097 7.13614C0.067697 8.41366 0.055217 8.8243 0.061457 12.083C0.067697 15.3417 0.082097 15.7502 0.144017 17.0304C0.204977 18.3069 0.408017 19.1786 0.707537 19.9411C1.01546 20.73 1.42754 21.3984 2.09546 22.0639C2.76338 22.7294 3.43202 23.1381 4.22402 23.4439C4.98722 23.7389 5.8601 23.94 7.13738 23.9959C8.41466 24.0518 8.82578 24.0648 12.0835 24.0585C15.3413 24.0523 15.7515 24.0379 17.0314 23.9772C18.3113 23.9165 19.1784 23.712 19.9411 23.4139C20.73 23.1053 21.3989 22.6939 22.0639 22.0257C22.729 21.3576 23.1384 20.688 23.4435 19.8974C23.7391 19.1342 23.94 18.2613 23.9955 16.985C24.0514 15.7041 24.0646 15.2952 24.0583 12.0369C24.0521 8.7787 24.0375 8.37022 23.9767 7.09054C23.916 5.81086 23.7127 4.94182 23.4135 4.17886C23.1051 3.38998 22.6935 2.72206 22.0258 2.05606C21.3581 1.39006 20.688 0.980864 19.8977 0.676544C19.134 0.381104 18.2616 0.179744 16.9843 0.124544C15.7071 0.0693437 15.2959 0.0551837 12.037 0.0614237C8.77802 0.0676637 8.37002 0.0815837 7.0901 0.143984ZM7.23026 21.8371C6.06026 21.7862 5.42498 21.5918 5.00162 21.4291C4.44098 21.2131 4.04162 20.952 3.6197 20.5341C3.19778 20.1163 2.93858 19.7155 2.7197 19.1561C2.5553 18.7327 2.3573 18.0981 2.30258 16.9281C2.24306 15.6636 2.23058 15.2839 2.22362 12.0801C2.21666 8.87638 2.2289 8.49718 2.28434 7.23214C2.33426 6.0631 2.52986 5.4271 2.69234 5.00398C2.90834 4.44262 3.1685 4.04398 3.5873 3.6223C4.0061 3.20062 4.4057 2.94094 4.96562 2.72206C5.3885 2.55694 6.02306 2.36062 7.19258 2.30494C8.4581 2.24494 8.8373 2.23294 12.0406 2.22598C15.2439 2.21902 15.624 2.23102 16.89 2.2867C18.0591 2.33758 18.6953 2.53126 19.1179 2.6947C19.6788 2.9107 20.0779 3.17014 20.4996 3.58966C20.9213 4.00918 21.1812 4.40734 21.4001 4.96846C21.5655 5.39014 21.7618 6.02446 21.817 7.1947C21.8772 8.46022 21.8909 8.83966 21.8967 12.0427C21.9024 15.2457 21.8911 15.6261 21.8357 16.8907C21.7846 18.0607 21.5907 18.6962 21.4277 19.1201C21.2117 19.6805 20.9513 20.0801 20.5323 20.5015C20.1132 20.9229 19.7141 21.1826 19.1539 21.4015C18.7315 21.5664 18.0963 21.7632 16.9277 21.8189C15.6622 21.8784 15.283 21.8909 12.0785 21.8978C8.87402 21.9048 8.49602 21.8918 7.2305 21.8371M17.0129 5.64646C17.0134 5.93129 17.0983 6.20958 17.2569 6.44613C17.4156 6.68268 17.6408 6.86687 17.9042 6.97541C18.1675 7.08395 18.4571 7.11195 18.7364 7.05589C19.0156 6.99982 19.272 6.8622 19.473 6.66043C19.674 6.45866 19.8107 6.2018 19.8657 5.92234C19.9208 5.64289 19.8917 5.35338 19.7822 5.09045C19.6727 4.82751 19.4877 4.60296 19.2506 4.44518C19.0134 4.2874 18.7348 4.20349 18.45 4.20406C18.0682 4.20483 17.7023 4.35721 17.4328 4.6277C17.1633 4.89818 17.0123 5.26464 17.0129 5.64646ZM5.8985 12.072C5.90522 15.4752 8.66906 18.2277 12.0715 18.2213C15.474 18.2148 18.2285 15.4512 18.222 12.048C18.2155 8.64478 15.451 5.8915 12.048 5.89822C8.64506 5.90494 5.89202 8.66926 5.8985 12.072ZM8.05994 12.0677C8.05837 11.2765 8.29144 10.5027 8.72967 9.84401C9.16791 9.18533 9.79162 8.6714 10.5219 8.3672C11.2523 8.06299 12.0564 7.98219 12.8326 8.135C13.6089 8.2878 14.3224 8.66736 14.8829 9.22567C15.4434 9.78399 15.8258 10.496 15.9817 11.2716C16.1376 12.0472 16.0599 12.8517 15.7586 13.5832C15.4573 14.3147 14.9459 14.9405 14.2889 15.3813C13.632 15.8221 12.8591 16.0583 12.0679 16.0598C11.5426 16.0609 11.0222 15.9585 10.5365 15.7585C10.0508 15.5585 9.60918 15.2647 9.23699 14.894C8.8648 14.5233 8.56929 14.0828 8.36733 13.5979C8.16536 13.113 8.06091 12.593 8.05994 12.0677Z" fill="#C5D2AF"/>
</g>
<defs>
<clipPath id="clip0_40_15">
<rect width="24" height="24" fill="white"/>
</clipPath>
</defs>
</svg>
